<svg xmlns="http://www.w3.org/2000/svg" viewBox="0 0 80 80"><defs><style>.a{fill:#dcf8de;}.b{fill:#232323;}</style></defs><circle class="a" cx="47" cy="47.5" r="32"/><path class="b" d="M62.5,48.25H49.75V34.5a1.25,1.25,0,0,0-2.5,0V48.25H35.75V38.5a1.25,1.25,0,0,0-1.25-1.25H21.75V18.75h9.5V23a1.25,1.25,0,0,0,1.25,1.25h4.12A1.25,1.25,0,0,0,37.88,23V18.75h9.37V25.5a1.25,1.25,0,0,0,2.5,0v-8a1.25,1.25,0,0,0-1.25-1.25H39.75V7.5A1.25,1.25,0,0,0,38.5,6.25h-28A1.25,1.25,0,0,0,9.25,7.5V37.25H6.5A1.25,1.25,0,0,0,5.25,38.5v28A1.25,1.25,0,0,0,6.5,67.75h56a1.25,1.25,0,0,0,1.25-1.25v-17A1.25,1.25,0,0,0,62.5,48.25Zm-14.75,2.5h1.63v3H47.75Zm-29-11h1.63v3H18.75Zm16.63-18H33.75v-3h1.63Zm-11.63-13h1.63v3H23.75Zm-12,0h9.5V13a1.25,1.25,0,0,0,1.25,1.25h4.12A1.25,1.25,0,0,0,27.88,13V8.75h9.37v7.5H20.5a1.25,1.25,0,0,0-1.25,1.25V37.25h-7.5Zm-4,31h8.5V44a1.25,1.25,0,0,0,1.25,1.25h4.12A1.25,1.25,0,0,0,22.88,44V39.75H33.25v25.5H7.75Zm53.5,25.5H35.75V50.75h9.5V55a1.25,1.25,0,0,0,1.25,1.25h4.12A1.25,1.25,0,0,0,51.88,55V50.75h9.37Z"/><path class="b" d="M48.5,28.25a1.25,1.25,0,0,0-1.25,1.25v1a1.25,1.25,0,0,0,2.5,0v-1A1.25,1.25,0,0,0,48.5,28.25Z"/></svg>