<svg xmlns="http://www.w3.org/2000/svg" viewBox="0 0 80 80"><defs><style>.a{fill:#dcf8de;}.b{fill:#232323;}</style></defs><circle class="a" cx="47" cy="47.5" r="32"/><rect class="b" x="14.38" y="57.07" width="2.03" height="2.03"/><path class="b" d="M37.69,44.91H20.46V29.71a1,1,0,0,0-1-1H1.2a1,1,0,0,0-1,1V62.14a1,1,0,0,0,1,1H37.69a1,1,0,0,0,1-1V45.92A1,1,0,0,0,37.69,44.91Zm-11.15,2H30.6V51H26.54ZM8.3,30.72h4v4.05h-4Zm-6.08,0h4v5.07a1,1,0,0,0,1,1h6.08a1,1,0,0,0,1-1V30.72h4V44.91H2.22ZM8.3,46.94h4V51h-4Zm-6.08,0h4V52a1,1,0,0,0,1,1h6.08a1,1,0,0,0,1-1V46.94h4V61.12H2.22ZM36.68,61.12H20.46V46.94h4.05V52a1,1,0,0,0,1,1h6.08a1,1,0,0,0,1-1V46.94h4.06Z"/><rect class="b" x="32.62" y="57.07" width="2.03" height="2.03"/><rect class="b" x="14.38" y="40.85" width="2.03" height="2.03"/><path class="b" d="M59.75,14.48l.24,0a1,1,0,0,0,1-1v-4a1,1,0,0,0-.78-1L30.83,1.36a.94.94,0,0,0-.47,0L1,8.45a1,1,0,0,0-.78,1v4a1.16,1.16,0,0,0,.17.6,1,1,0,0,0,1.08.42L3.23,14V26.67h2V13.55L30.6,7.44l25.33,6.11V61.12H49.85V21.6a1,1,0,0,0-1-1H12.35a1,1,0,0,0-1,1v4a1,1,0,0,0,1,1H47.82v2H22.49v2H47.82v2H22.49v2H47.82v2H22.49v2H47.82V61.12H40.73v2H61v-2H58V14ZM13.37,24.64v-2H47.82v2ZM30.6,5.38a1,1,0,0,0-.24,0L2.22,12.2v-2L30.6,3.38,59,10.23v2L30.83,5.41A.85.85,0,0,0,30.6,5.38Z"/><path class="b" d="M32.62,17.54a3,3,0,1,0,0-6.08h-4a3,3,0,0,0,0,6.08Zm-5.07-3a1,1,0,0,1,1-1h4a1,1,0,1,1,0,2h-4A1,1,0,0,1,27.55,14.5Z"/></svg>