<svg xmlns="http://www.w3.org/2000/svg" viewBox="0 0 80 80"><defs><style>.a{fill:#dcf8de;}.b{fill:#232323;}</style></defs><circle class="a" cx="47" cy="47.5" r="32"/><path class="b" d="M72,17.26l0-.1a1,1,0,0,0-.12-.23,1.12,1.12,0,0,0-.28-.25l-.12-.06,0,0L46.61,8.66a1.23,1.23,0,0,0-.66,0L18.56,16.59l-.07,0-.14.06a1.48,1.48,0,0,0-.35.25,1.1,1.1,0,0,0-.2.23.61.61,0,0,0-.07.1,1.22,1.22,0,0,0-.14.39v0l-1.33,7.94H11.72l-.38,2.26H22.67l.38-2.26H18.51l1.07-6.34L26,21.63l-1.62,9.64a.93.93,0,0,0,.53,1.05l5.29,2.27A1.32,1.32,0,0,0,31.76,34a1.42,1.42,0,0,0,.15-.42l1.54-9.15L42,27.54,37.62,53.47,15.22,45.2l.06-.34a.94.94,0,0,0-.94-1.13A1.41,1.41,0,0,0,13,44.86L12.82,46a.93.93,0,0,0,.58,1.07l24.54,9.06h0a1.55,1.55,0,0,0,.31.06h0a1.36,1.36,0,0,0,.39-.08h0l27.77-10.2a1.41,1.41,0,0,0,.9-1L72,17.67v0A1,1,0,0,0,72,17.26Zm-28.5,8.28-6.69-2.47L60,15.44l7.19,2.31Zm13-11.22-23,7.55L31,20.92l22.29-7.64ZM45.9,10.93l3.92,1.26-22,7.56-5.41-2Zm-16,20.93L26.75,30.5l1.31-7.75,3.17,1.36Zm10,21.54,4.35-25.86,25.17-8.27L65.25,44.09Z"/><path class="b" d="M1.32,33.54H5.85L5.47,35.8H.94Z"/><path class="b" d="M3.58,40.33H7L6.6,42.6H3.2Z"/><path class="b" d="M28.12,42.6l.38-2.27H16l.38-2.26a.94.94,0,0,0-.94-1.14,1.41,1.41,0,0,0-1.33,1.14l-.38,2.26H9.24L8.86,42.6Z"/><path class="b" d="M6.05,25.61h3.4l-.38,2.26H5.67Z"/><path class="b" d="M16.81,29a1.39,1.39,0,0,0-1.32,1.14l-.57,3.4H8.12L7.74,35.8H23.6L24,33.54h-6.8l.57-3.4A.93.93,0,0,0,16.81,29Z"/><path class="b" d="M45.17,1.82h17l-.38,2.26h-17Z"/><path class="b" d="M39.51,1.82H42.9l-.38,2.26h-3.4Z"/><path class="b" d="M10,56.19H27l-.38,2.27H9.6Z"/></svg>