<svg xmlns="http://www.w3.org/2000/svg" viewBox="0 0 80 80"><defs><style>.a{fill:#dcf8de;}.b{fill:#232323;}</style></defs><circle class="a" cx="47" cy="47.5" r="32"/><path class="b" d="M13.32,30l-2.74,11a.87.87,0,0,0,.86,1.14,1.57,1.57,0,0,0,1.43-1.14L15.6,30Z"/><path class="b" d="M23,54.52a3.2,3.2,0,0,0-2.94,2.36,1.78,1.78,0,0,0,1.77,2.35,3.23,3.23,0,0,0,2.95-2.35A1.79,1.79,0,0,0,23,54.52Z"/><path class="b" d="M63.16,54.52a3.2,3.2,0,0,0-2.94,2.36A1.78,1.78,0,0,0,62,59.23a3.23,3.23,0,0,0,2.95-2.35A1.79,1.79,0,0,0,63.16,54.52Z"/><path class="b" d="M51,49.65h-17a1.57,1.57,0,0,0-1.43,1.14.87.87,0,0,0,.86,1.14h17a1.57,1.57,0,0,0,1.43-1.14A.87.87,0,0,0,51,49.65Z"/><path class="b" d="M23,44.78H8.37a1.57,1.57,0,0,0-1.43,1.14.87.87,0,0,0,.86,1.14H22.41a1.54,1.54,0,0,0,1.42-1.14A.86.86,0,0,0,23,44.78Z"/><path class="b" d="M26,13.78H11.37a1.57,1.57,0,0,0-1.43,1.14.87.87,0,0,0,.86,1.14H25.41a1.54,1.54,0,0,0,1.42-1.14A.86.86,0,0,0,26,13.78Z"/><path class="b" d="M74.36,37.54V30a1.57,1.57,0,0,0,1.18-1.11l.3-1.22a3.63,3.63,0,0,0-3.6-4.79h-8.6l.62-2.51A1.79,1.79,0,0,0,62.48,18H18.66a3.24,3.24,0,0,0-2.95,2.36l-.6,2.42H4.37a1.57,1.57,0,0,0-1.43,1.14.87.87,0,0,0,.86,1.14H18.41a1.54,1.54,0,0,0,1.42-1.14A.86.86,0,0,0,19,22.78H17.4l.6-2.42a.11.11,0,0,1,.09-.08H61.91a.06.06,0,0,1,.06.08L56.84,41.05a.86.86,0,0,0,.86,1.14,1.55,1.55,0,0,0,1.42-1.14l.32-1.29H72.91a2.75,2.75,0,0,1,2.9,2.58H72.27a1.58,1.58,0,0,0-1.43,1.15l-.6,2.43a2.71,2.71,0,0,0,2.69,3.58h1.29l-1.24,5H70a5.33,5.33,0,0,0-5.62-4.87,9.84,9.84,0,0,0-8,4.87h-.55l2.13-8.6a.86.86,0,0,0-.86-1.14,1.55,1.55,0,0,0-1.42,1.14l-2.13,8.6H29.82a5.33,5.33,0,0,0-5.62-4.87,9.84,9.84,0,0,0-8,4.87H9.6s-.06,0,0-.08l.62-2.51h4.94a1.57,1.57,0,0,0,1.43-1.14.87.87,0,0,0-.86-1.14h-11A1.55,1.55,0,0,0,3.3,50.79a.86.86,0,0,0,.86,1.14H7.89l-.63,2.51A1.79,1.79,0,0,0,9,56.8H15.2a.19.19,0,0,1,0,.07c-1,4,1.45,7.23,5.44,7.23a9.87,9.87,0,0,0,9-7.23s0,0,0-.07H55.37s0,.05,0,.07c-1,4,1.45,7.23,5.43,7.23a9.85,9.85,0,0,0,9-7.23s0,0,0-.07h3.73A1.54,1.54,0,0,0,75,55.66l3-12.17C78.74,40.48,77.14,38,74.36,37.54ZM60,37.48,61.86,30H72v7.46Zm13.54-9.82,0,.08H62.42l.64-2.59h8.6A1.91,1.91,0,0,1,73.55,27.66ZM27.35,56.88a6.74,6.74,0,0,1-6.17,4.94,3.75,3.75,0,0,1-3.72-4.94,6.76,6.76,0,0,1,6.17-5A3.75,3.75,0,0,1,27.35,56.88Zm40.17,0a6.74,6.74,0,0,1-6.17,4.94,3.74,3.74,0,0,1-3.72-4.94,6.76,6.76,0,0,1,6.17-5A3.75,3.75,0,0,1,67.52,56.88Zm7.27-9.67h-1.3a1,1,0,0,1-1-1.29l.32-1.29h2.59Z"/><path class="b" d="M25,26.78H16.4l.19-.73H14.3l-.18.73H10.37a1.57,1.57,0,0,0-1.43,1.14.87.87,0,0,0,.86,1.14H24.41a1.54,1.54,0,0,0,1.42-1.14A.86.86,0,0,0,25,26.78Z"/><path class="b" d="M39,9.78H24.37a1.57,1.57,0,0,0-1.43,1.14.87.87,0,0,0,.86,1.14H38.41a1.54,1.54,0,0,0,1.42-1.14A.86.86,0,0,0,39,9.78Z"/><path class="b" d="M48.31,29.29a1.12,1.12,0,0,0-1.61,0L34,39.44l-4-5.28a1.12,1.12,0,0,0-1.61,0,1.22,1.22,0,0,0-.4,1.61l4.58,6.09a.88.88,0,0,0,.72.33,1.47,1.47,0,0,0,.89-.33l13.67-11A1.21,1.21,0,0,0,48.31,29.29Z"/></svg>